<svg xmlns="http://www.w3.org/2000/svg" viewBox="0 0 400 100" width="100%" height="100%">
  <!-- Icon Group -->
  <g transform="translate(10, 5)">
    <!-- Main Electric Van Outline in Xanh SM Cyan -->
    <path d="M15 50 C15 38, 25 32, 45 32 L62 32 C72 32, 78 37, 81 44 L88 54 C91 58, 91 64, 88 67 L85 72 C83 74, 80 75, 77 75 L20 75 C16 75, 13 72, 13 68 Z" fill="#00CED1" />
    
    <!-- Wheels -->
    <circle cx="32" cy="75" r="9" fill="#003335" stroke="#FFFFFF" stroke-width="2.5"/>
    <circle cx="68" cy="75" r="9" fill="#003335" stroke="#FFFFFF" stroke-width="2.5"/>
    <circle cx="32" cy="75" r="3" fill="#FFFFFF"/>
    <circle cx="68" cy="75" r="3" fill="#FFFFFF"/>
    
    <!-- Premium Glass Window -->
    <path d="M52 38 L62 38 C67 38, 70 41, 71 46 L75 52 L52 52 Z" fill="#FFFFFF" opacity="0.85"/>
    
    <!-- Lightning Bolt (Electric Icon) inside van body in Gold -->
    <path d="M36 44 L44 54 L39 54 L43 64 L33 54 L38 54 Z" fill="#FFC500"/>
    
    <!-- Speed Lines for Motion -->
    <line x1="3" y1="42" x2="9" y2="42" stroke="#00CED1" stroke-width="2" stroke-linecap="round"/>
    <line x1="1" y1="48" x2="8" y2="48" stroke="#00CED1" stroke-width="2" stroke-linecap="round"/>
    <line x1="4" y1="54" x2="8" y2="54" stroke="#00CED1" stroke-width="2" stroke-linecap="round"/>
  </g>
  
  <!-- Typography (Text) -->
  <!-- "XANH SM" Title -->
  <text x="115" y="48" font-family="'Be Vietnam Pro', -apple-system, sans-serif" font-size="28" font-weight="800" fill="#003335">XANH <tspan fill="#00CED1">SM</tspan></text>
  
  <!-- "EC VAN" Subtitle -->
  <text x="115" y="76" font-family="'Be Vietnam Pro', -apple-system, sans-serif" font-size="18" font-weight="700" fill="#FFC500" letter-spacing="4">EC VAN</text>
</svg>
